# Blender v2.79 (sub 0) OBJ File: ''
# www.blender.org
mtllib test3.mtl
o Cylinder
v -0.268601 6.611206 -4.347507
v -0.268601 3.194090 -4.347507
v -0.526881 6.611206 -4.290602
v -0.526881 3.194090 -4.290602
v -0.764914 6.611206 -4.198192
v -0.764914 3.194090 -4.198192
v -0.973551 6.611206 -4.073829
v -0.973551 3.194090 -4.073829
v -1.144776 6.611206 -3.922293
v -1.144776 3.194090 -3.922293
v -1.272007 6.611206 -3.749406
v -1.272007 3.194090 -3.749406
v -1.350356 6.611206 -3.561813
v -1.350356 3.194090 -3.561813
v -1.376811 6.611206 -3.366723
v -1.376811 3.194090 -3.366723
v -1.350357 6.611206 -3.171632
v -1.350357 3.194090 -3.171632
v -1.272008 6.611206 -2.984039
v -1.272008 3.194090 -2.984039
v -1.144777 6.611206 -2.811152
v -1.144777 3.194090 -2.811152
v -0.973553 6.611206 -2.659615
v -0.973553 3.194090 -2.659615
v -0.764916 6.611206 -2.535252
v -0.764916 3.194090 -2.535252
v -0.526884 6.611206 -2.442842
v -0.526884 3.194090 -2.442842
v -0.268603 6.611206 -2.385936
v -0.268603 3.194090 -2.385936
v -0.000000 6.611206 -2.366722
v -0.000000 3.194090 -2.366722
v 0.268602 6.611206 -2.385936
v 0.268602 3.194090 -2.385936
v 0.526883 6.611206 -2.442842
v 0.526883 3.194090 -2.442842
v 0.764915 6.611206 -2.535252
v 0.764915 3.194090 -2.535252
v 0.973553 6.611206 -2.659615
v 0.973553 3.194090 -2.659615
v 1.144777 6.611206 -2.811152
v 1.144777 3.194090 -2.811152
v 1.272008 6.611206 -2.984038
v 1.272008 3.194090 -2.984038
v 1.350356 6.611206 -3.171631
v 1.350356 3.194090 -3.171631
v 1.376811 6.611206 -3.366722
v 1.376811 3.194090 -3.366722
v 1.350356 6.611206 -3.561812
v 1.350356 3.194090 -3.561812
v 1.272008 6.611206 -3.749405
v 1.272008 3.194090 -3.749405
v 1.144777 6.611206 -3.922292
v 1.144777 3.194090 -3.922292
v 0.973553 6.611206 -4.073828
v 0.973553 3.194090 -4.073828
v 0.764915 6.611206 -4.198191
v 0.764915 3.194090 -4.198191
v 0.526883 6.611206 -4.290601
v 0.526883 3.194090 -4.290601
v 0.268603 6.611206 -4.347507
v 0.268603 3.194090 -4.347507
v -0.000000 6.611206 -4.366722
v -0.000000 3.194090 -4.366722
vn 0.0000 -1.0000 0.0000
vn -0.0714 0.0000 -0.9975
vn -0.2152 0.0000 -0.9766
vn 0.0000 1.0000 -0.0000
vn -0.3619 0.0000 -0.9322
vn -0.5120 0.0000 -0.8590
vn -0.6627 0.0000 -0.7488
vn -0.8054 0.0000 -0.5927
vn -0.9228 0.0000 -0.3854
vn -0.9909 0.0000 -0.1344
vn -0.9909 0.0000 0.1344
vn -0.9228 0.0000 0.3854
vn -0.8054 0.0000 0.5927
vn -0.6627 0.0000 0.7488
vn -0.5120 0.0000 0.8590
vn -0.3619 0.0000 0.9322
vn -0.2152 0.0000 0.9766
vn -0.0714 0.0000 0.9975
vn 0.0714 0.0000 0.9975
vn 0.2152 0.0000 0.9766
vn 0.3619 0.0000 0.9322
vn 0.5120 0.0000 0.8590
vn 0.6627 0.0000 0.7488
vn 0.8054 0.0000 0.5927
vn 0.9228 0.0000 0.3854
vn 0.9909 0.0000 0.1344
vn 0.9909 0.0000 -0.1344
vn 0.9228 0.0000 -0.3854
vn 0.8054 0.0000 -0.5927
vn 0.6627 0.0000 -0.7488
vn 0.5120 0.0000 -0.8590
vn 0.3619 0.0000 -0.9322
vn 0.2152 0.0000 -0.9766
vn 0.0714 0.0000 -0.9975
usemtl None
s off
f 64//1 62//1 60//1 58//1 56//1 54//1 52//1 50//1 48//1 46//1 44//1 42//1 40//1 38//1 36//1 34//1 32//1 30//1 28//1 26//1 24//1 22//1 20//1 18//1 16//1 14//1 12//1 10//1 8//1 6//1 4//1 2//1
f 2//2 1//2 63//2 64//2
f 4//3 3//3 1//3 2//3
f 61//4 63//4 1//4 3//4 5//4 7//4 9//4 11//4 13//4 15//4 17//4 19//4 21//4 23//4 25//4 27//4 29//4 31//4 33//4 35//4 37//4 39//4 41//4 43//4 45//4 47//4 49//4 51//4 53//4 55//4 57//4 59//4
f 6//5 5//5 3//5 4//5
f 8//6 7//6 5//6 6//6
f 10//7 9//7 7//7 8//7
f 12//8 11//8 9//8 10//8
f 14//9 13//9 11//9 12//9
f 16//10 15//10 13//10 14//10
f 18//11 17//11 15//11 16//11
f 20//12 19//12 17//12 18//12
f 22//13 21//13 19//13 20//13
f 24//14 23//14 21//14 22//14
f 26//15 25//15 23//15 24//15
f 28//16 27//16 25//16 26//16
f 30//17 29//17 27//17 28//17
f 32//18 31//18 29//18 30//18
f 34//19 33//19 31//19 32//19
f 36//20 35//20 33//20 34//20
f 38//21 37//21 35//21 36//21
f 40//22 39//22 37//22 38//22
f 42//23 41//23 39//23 40//23
f 44//24 43//24 41//24 42//24
f 46//25 45//25 43//25 44//25
f 48//26 47//26 45//26 46//26
f 50//27 49//27 47//27 48//27
f 52//28 51//28 49//28 50//28
f 54//29 53//29 51//29 52//29
f 56//30 55//30 53//30 54//30
f 58//31 57//31 55//31 56//31
f 60//32 59//32 57//32 58//32
f 62//33 61//33 59//33 60//33
f 64//34 63//34 61//34 62//34
o Icosphere
v 0.000000 0.832843 1.455819
v 0.723607 1.385623 1.981544
v -0.276388 1.385623 2.306468
v -0.894426 1.385627 1.455819
v -0.276388 1.385623 0.605170
v 0.723607 1.385623 0.930094
v 0.276388 2.280062 2.306468
v -0.723607 2.280062 1.981544
v -0.723607 2.280062 0.930094
v 0.276388 2.280062 0.605170
v 0.894426 2.280058 1.455819
v 0.000000 2.832843 1.455819
v -0.162456 0.982188 1.955814
v 0.425323 0.982188 1.764830
v 0.262869 1.307105 2.264831
v 0.850648 1.307107 1.455819
v 0.425323 0.982188 1.146808
v -0.525730 0.982191 1.455819
v -0.688189 1.307106 1.955816
v -0.162456 0.982188 0.955824
v -0.688189 1.307106 0.955822
v 0.262869 1.307105 0.646807
v 0.951058 1.832843 1.764832
v 0.951058 1.832843 1.146806
v 0.000000 1.832843 2.455819
v 0.587786 1.832843 2.264836
v -0.951058 1.832843 1.764832
v -0.587786 1.832843 2.264836
v -0.587786 1.832843 0.646802
v -0.951058 1.832843 1.146806
v 0.587786 1.832843 0.646802
v 0.000000 1.832843 0.455819
v 0.688189 2.358579 1.955816
v -0.262869 2.358580 2.264831
v -0.850648 2.358578 1.455819
v -0.262869 2.358580 0.646807
v 0.688189 2.358579 0.955822
v 0.162456 2.683497 1.955814
v 0.525730 2.683494 1.455819
v -0.425323 2.683497 1.764830
v -0.425323 2.683497 1.146808
v 0.162456 2.683497 0.955824
vn 0.1024 -0.9435 0.3151
vn 0.7002 -0.6617 0.2680
vn -0.2680 -0.9435 0.1947
vn -0.2680 -0.9435 -0.1947
vn 0.1024 -0.9435 -0.3151
vn 0.9050 -0.3304 0.2680
vn 0.0247 -0.3304 0.9435
vn -0.8897 -0.3304 0.3151
vn -0.5746 -0.3304 -0.7488
vn 0.5346 -0.3304 -0.7779
vn 0.8026 -0.1256 0.5831
vn -0.3066 -0.1256 0.9435
vn -0.9921 -0.1256 0.0000
vn -0.3066 -0.1256 -0.9435
vn 0.8026 -0.1256 -0.5831
vn 0.4089 0.6617 0.6284
vn -0.4713 0.6617 0.5831
vn -0.7002 0.6617 -0.2680
vn 0.0385 0.6617 -0.7488
vn 0.7240 0.6617 -0.1947
vn 0.2680 0.9435 -0.1947
vn 0.4911 0.7947 -0.3568
vn 0.4089 0.6617 -0.6284
vn -0.1024 0.9435 -0.3151
vn -0.1876 0.7947 -0.5773
vn -0.4713 0.6617 -0.5831
vn -0.3313 0.9435 0.0000
vn -0.6071 0.7947 0.0000
vn -0.7002 0.6617 0.2680
vn -0.1024 0.9435 0.3151
vn -0.1876 0.7947 0.5773
vn 0.0385 0.6617 0.7488
vn 0.2680 0.9435 0.1947
vn 0.4911 0.7947 0.3568
vn 0.7240 0.6617 0.1947
vn 0.8897 0.3304 -0.3151
vn 0.7947 0.1876 -0.5773
vn 0.5746 0.3304 -0.7488
vn -0.0247 0.3304 -0.9435
vn -0.3035 0.1876 -0.9342
vn -0.5346 0.3304 -0.7779
vn -0.9050 0.3304 -0.2680
vn -0.9822 0.1876 0.0000
vn -0.9050 0.3304 0.2680
vn -0.5346 0.3304 0.7779
vn -0.3035 0.1876 0.9342
vn -0.0247 0.3304 0.9435
vn 0.5746 0.3304 0.7488
vn 0.7947 0.1876 0.5773
vn 0.8897 0.3304 0.3151
vn 0.3066 0.1256 -0.9435
vn 0.3035 -0.1876 -0.9342
vn 0.0247 -0.3304 -0.9435
vn -0.8026 0.1256 -0.5831
vn -0.7947 -0.1876 -0.5773
vn -0.8897 -0.3304 -0.3151
vn -0.8026 0.1256 0.5831
vn -0.7947 -0.1876 0.5773
vn -0.5746 -0.3304 0.7488
vn 0.3066 0.1256 0.9435
vn 0.3035 -0.1876 0.9342
vn 0.5346 -0.3304 0.7779
vn 0.9921 0.1256 0.0000
vn 0.9822 -0.1876 0.0000
vn 0.9050 -0.3304 -0.2680
vn 0.4713 -0.6617 -0.5831
vn 0.1876 -0.7947 -0.5773
vn -0.0385 -0.6617 -0.7488
vn -0.4089 -0.6617 -0.6284
vn -0.4911 -0.7947 -0.3568
vn -0.7240 -0.6617 -0.1947
vn -0.7240 -0.6617 0.1947
vn -0.4911 -0.7947 0.3568
vn -0.4089 -0.6617 0.6284
vn 0.7002 -0.6617 -0.2680
vn 0.6071 -0.7947 0.0000
vn 0.3313 -0.9435 0.0000
vn -0.0385 -0.6617 0.7488
vn 0.1876 -0.7947 0.5773
vn 0.4713 -0.6617 0.5831
usemtl None
s off
f 65//35 78//35 77//35
f 66//36 78//36 80//36
f 65//37 77//37 82//37
f 65//38 82//38 84//38
f 65//39 84//39 81//39
f 66//40 80//40 87//40
f 67//41 79//41 89//41
f 68//42 83//42 91//42
f 69//43 85//43 93//43
f 70//44 86//44 95//44
f 66//45 87//45 90//45
f 67//46 89//46 92//46
f 68//47 91//47 94//47
f 69//48 93//48 96//48
f 70//49 95//49 88//49
f 71//50 97//50 102//50
f 72//51 98//51 104//51
f 73//52 99//52 105//52
f 74//53 100//53 106//53
f 75//54 101//54 103//54
f 103//55 106//55 76//55
f 103//56 101//56 106//56
f 101//57 74//57 106//57
f 106//58 105//58 76//58
f 106//59 100//59 105//59
f 100//60 73//60 105//60
f 105//61 104//61 76//61
f 105//62 99//62 104//62
f 99//63 72//63 104//63
f 104//64 102//64 76//64
f 104//65 98//65 102//65
f 98//66 71//66 102//66
f 102//67 103//67 76//67
f 102//68 97//68 103//68
f 97//69 75//69 103//69
f 88//70 101//70 75//70
f 88//71 95//71 101//71
f 95//72 74//72 101//72
f 96//73 100//73 74//73
f 96//74 93//74 100//74
f 93//75 73//75 100//75
f 94//76 99//76 73//76
f 94//77 91//77 99//77
f 91//78 72//78 99//78
f 92//79 98//79 72//79
f 92//80 89//80 98//80
f 89//81 71//81 98//81
f 90//82 97//82 71//82
f 90//83 87//83 97//83
f 87//84 75//84 97//84
f 95//85 96//85 74//85
f 95//86 86//86 96//86
f 86//87 69//87 96//87
f 93//88 94//88 73//88
f 93//89 85//89 94//89
f 85//90 68//90 94//90
f 91//91 92//91 72//91
f 91//92 83//92 92//92
f 83//93 67//93 92//93
f 89//94 90//94 71//94
f 89//95 79//95 90//95
f 79//96 66//96 90//96
f 87//97 88//97 75//97
f 87//98 80//98 88//98
f 80//99 70//99 88//99
f 81//100 86//100 70//100
f 81//101 84//101 86//101
f 84//102 69//102 86//102
f 84//103 85//103 69//103
f 84//104 82//104 85//104
f 82//105 68//105 85//105
f 82//106 83//106 68//106
f 82//107 77//107 83//107
f 77//108 67//108 83//108
f 80//109 81//109 70//109
f 80//110 78//110 81//110
f 78//111 65//111 81//111
f 77//112 79//112 67//112
f 77//113 78//113 79//113
f 78//114 66//114 79//114
